<?xml version="1.0" encoding="UTF-8"?>
<svg id="Calque_1" data-name="Calque 1" xmlns="http://www.w3.org/2000/svg" viewBox="0 0 456.89 448.87">
  <g>
    <path fill="#fff" d="m139.87,27.45c8.43-1.5,17.01-2.26,25.6-2.26,23.86,0,47.48,5.9,68.35,17.07l2.36,1.26,2.36-1.26c20.89-11.17,44.53-17.08,68.36-17.08,38.73,0,75.14,15.08,102.53,42.46,22.44,22.45,36.63,50.88,41.04,82.22,4.26,30.32-1.29,61.81-15.66,88.67-6.7,12.53-15.25,24.03-25.39,34.18l-12.14,12.14L139.87,27.45Z"/>
    <path fill="#fff" d="m306.9,30.18c37.39,0,72.55,14.56,98.99,41,21.67,21.67,35.37,49.12,39.63,79.38,4.12,29.28-1.25,59.69-15.11,85.61-6.47,12.1-14.72,23.21-24.51,33.01l-8.61,8.61L150.48,30.99c4.97-.53,9.98-.8,14.99-.8h.06c22.98,0,45.78,5.7,65.93,16.48l4.72,2.52,4.72-2.52c20.17-10.78,42.99-16.49,66-16.49h0m0-10c-24.34,0-48.69,5.89-70.71,17.67-22-11.77-46.32-17.66-70.65-17.66-.02,0-.04,0-.06,0-11.98,0-23.96,1.42-35.66,4.27l267.47,267.47,15.68-15.68c10.71-10.72,19.46-22.65,26.26-35.36,30.35-56.75,21.6-128.91-26.26-176.78-29.29-29.29-67.68-43.93-106.07-43.93h0Z"/>
  </g>
  <g>
    <path fill="#fff" d="m236.18,448.37c-2.54,0-4.93-.98-6.72-2.77L59.75,275.9c-10.45-10.46-19.26-22.32-26.17-35.24-27.22-50.9-22.51-113.63,12-159.81l.26-.35L.71,35.36,35.36.71l374.79,374.79-34.65,34.65-48.58-48.58-84.02,84.02c-1.79,1.79-4.17,2.77-6.72,2.77Z"/>
    <path fill="#fff" d="m35.36,1.41l12.02,12.02,33.24,33.24,280.95,280.95,39.36,39.36,8.51,8.51-33.95,33.95-47.87-47.87-.71-.71-.71.71-83.67,83.67c-1.69,1.69-3.95,2.62-6.36,2.62s-4.67-.93-6.36-2.62L60.11,275.54c-10.42-10.43-19.2-22.25-26.09-35.12-27.13-50.73-22.43-113.25,11.96-159.28l.52-.69-.61-.61L1.41,35.36,35.36,1.41m0-1.41L0,35.36l45.18,45.18C10.1,127.49,6.09,190.31,33.14,240.89c6.8,12.71,15.55,24.64,26.26,35.36l169.71,169.7c1.95,1.95,4.51,2.92,7.07,2.92s5.12-.97,7.07-2.92l83.67-83.67,48.58,48.58,35.36-35.36-9.22-9.22-39.36-39.36L81.33,45.97,48.09,12.73,35.36,0h0Z"/>
  </g>
</svg>