<?xml version="1.0" encoding="utf-8"?>
<!-- Generator: Adobe Illustrator 27.3.1, SVG Export Plug-In . SVG Version: 6.00 Build 0)  -->
<svg version="1.1" id="Calque_1" xmlns="http://www.w3.org/2000/svg" xmlns:xlink="http://www.w3.org/1999/xlink" x="0px" y="0px"
	 viewBox="0 0 441.4 428.7" style="enable-background:new 0 0 441.4 428.7;" xml:space="preserve">
<path fill="#fff" d="M220.7,423.7c-1.3,0-2.6-0.5-3.5-1.5L47.5,252.5c-10.1-10.1-18.7-21.6-25.4-34.2C7.7,191.5,2.2,160,6.4,129.7
	c4.4-31.3,18.6-59.8,41-82.2C74.8,20.1,111.2,5,150,5c23.9,0,47.5,5.9,68.4,17.1l2.4,1.3l2.4-1.3C244,10.9,267.6,5,291.4,5
	c38.7,0,75.1,15.1,102.5,42.5c22.4,22.4,36.6,50.9,41,82.2c4.3,30.3-1.3,61.8-15.7,88.7c-6.7,12.5-15.2,24-25.4,34.2L224.2,422.2
	C223.3,423.2,222,423.7,220.7,423.7L220.7,423.7z"/>
</svg>
